<svg xmlns="http://www.w3.org/2000/svg" width="26" height="26" viewBox="0 0 26 26">
    <g fill="#152934" fill-rule="nonzero" stroke="#152934">
        <path stroke-linecap="round" stroke-linejoin="round" d="M19.288 10.399c.972 0 1.944-.002 2.915 0h.035c.04 0 .08 0 .12.002.025.002.051.006.08.006.135.01-.128-.025.002.002.114.023.223.055.332.092.082.028-.026-.017-.032-.014a1.795 1.795 0 0 1 .234.123c.048.029.091.066.14.094.063.04-.077-.074-.028-.02.02.022.048.04.07.06.037.033.072.068.106.104l.052.055.048.057c-.014-.02-.029-.036-.044-.057.023.002.086.124.094.14.028.049.057.098.082.15l.034.068a.428.428 0 0 0-.013-.032c.02.002.055.16.06.18.016.055.028.113.04.17.02.1.034.017 0-.017a1.552 1.552 0 0 1 .015.24v10.373c0 .034 0 .07-.003.105 0 .029.006.137-.012.158.035-.035.018-.115 0-.017l-.017.077a2.338 2.338 0 0 1-.046.166l-.025.071c-.04.123.057-.112 0 .002-.051.103-.103.2-.169.295-.006.01-.036.06-.043.06 0 0 .091-.109.02-.029-.043.046-.082.094-.126.137-.04.04-.082.078-.125.115-.025.022-.08.034-.014.013.074-.025-.011.006-.034.02-.035.024-.261.186-.298.163.021.012.117-.043.014-.009-.023.01-.048.017-.07.025a1.894 1.894 0 0 1-.244.06c-.109.023.034-.003.036-.003-.023.023-.162.014-.196.014h-.057c-.452.002-.906 0-1.359 0H3.8c-.04 0-.08 0-.12-.002-.025-.002-.052-.002-.08-.006-.135-.011.128.025-.003-.002a2.372 2.372 0 0 1-.314-.086c-.1-.036-.017.02.014.01-.006.002-.069-.033-.069-.033a1.795 1.795 0 0 1-.166-.091c-.048-.029-.091-.065-.14-.094-.063-.04.077.074.025.02-.02-.022-.048-.04-.071-.062a2.282 2.282 0 0 1-.105-.105l-.052-.055-.048-.057c.014.02.029.036.044.057-.029-.006-.083-.12-.094-.141a2.065 2.065 0 0 1-.082-.149l-.035-.068c-.045-.09.012.017.012.032-.006-.057-.046-.126-.063-.18a1.812 1.812 0 0 1-.04-.17c-.017-.094-.04-.023 0 .017a.378.378 0 0 1-.01-.078c-.005-.054-.005-.105-.005-.16V1.821l-.572.571H17.14c.706 0 1.415.025 2.12 0h.029l-.572-.571V18.212c0 .755-.017 1.515 0 2.27v.031c0 .3.263.586.572.572.309-.014.572-.251.572-.572V4.122c0-.754.017-1.515 0-2.27v-.031a.58.58 0 0 0-.572-.572H3.975c-.707 0-1.416-.014-2.121 0h-.029a.58.58 0 0 0-.571.572V22.09c0 .48.097.95.34 1.37a2.584 2.584 0 0 0 2.218 1.283c.449.002.898 0 1.347 0h17.084a2.576 2.576 0 0 0 2.442-1.858c.097-.337.097-.677.097-1.021v-9.836c0-.48-.06-.94-.275-1.38-.423-.872-1.351-1.393-2.303-1.396H19.296c-.3 0-.585.263-.571.572a.57.57 0 0 0 .563.574z"/>
        <path d="M15.458 9.656H6.685c-.402 0-.809-.017-1.211 0h-.018l.572.571V5.882l-.572.571h8.773c.402 0 .81.017 1.212 0h.017l-.572-.571v4.345c0 .3.263.586.572.572.309-.014.572-.251.572-.572V5.882a.58.58 0 0 0-.572-.572H6.685c-.402 0-.809-.011-1.211 0h-.018a.58.58 0 0 0-.571.572v4.345a.58.58 0 0 0 .571.572h8.773c.402 0 .81.012 1.212 0h.017c.3 0 .585-.263.572-.572-.014-.308-.252-.571-.572-.571zM15.458 14.143H6.685c-.402 0-.809-.011-1.211 0h-.018c-.3 0-.585.263-.571.572.014.309.251.571.571.571h8.773c.402 0 .81.012 1.212 0h.017c.3 0 .585-.262.572-.571-.014-.309-.252-.572-.572-.572zM15.458 18.802H6.685c-.402 0-.809-.011-1.211 0h-.018c-.3 0-.585.263-.571.572.014.308.251.571.571.571h8.773c.402 0 .809.012 1.211 0h.018c.299 0 .585-.263.571-.571-.014-.309-.251-.572-.571-.572z"/>
    </g>
</svg>
