<svg xmlns="http://www.w3.org/2000/svg" width="26" height="26" viewBox="0 0 26 26">
    <path fill="#152934" fill-rule="nonzero" stroke="#152934" d="M21.94 11.792c-.544 0-1.237.1-1.98.297V6.297c0-.297-.197-.494-.494-.494l-5.793-.001c.198-.743.297-1.436.297-1.98C13.97 1 11.346 1 10.505 1 9.663 1 7.04 1 7.04 3.822c0 .545.1 1.237.297 1.98H1.495c-.297 0-.495.197-.495.494v6.09c0 .149.05.298.198.397.099.049.248.098.396.098.248-.049.545-.049.792-.049 1.336 0 1.831.693 1.831 2.476 0 1.782-.495 2.475-1.831 2.475-.248 0-.495 0-.792-.049-.148 0-.297 0-.396.1a.446.446 0 0 0-.198.394v6.04c0 .297.198.494.495.494h6.089c.297 0 .495-.197.495-.494 0-.05 0-.1-.05-.149-.049-.248-.049-.445-.049-.693 0-1.337.694-1.832 2.476-1.832s2.475.495 2.475 1.832c0 .248 0 .495-.049.792 0 .148 0 .297.1.396.099.1.247.198.396.198h6.089c.297 0 .495-.198.495-.495l-.001-5.841c.742.197 1.436.297 1.98.297 2.821 0 2.821-2.624 2.821-3.465 0-.892 0-3.516-2.821-3.516zm0 5.99c-.593 0-1.485-.148-2.326-.445-.149-.05-.297 0-.446.049a.45.45 0 0 0-.198.396v5.94h-5.05v-.345c0-2.822-2.623-2.822-3.464-2.822-.842 0-3.465 0-3.465 2.822v.346h-5v-4.95h.346c2.821 0 2.821-2.624 2.821-3.465 0-.842 0-3.465-2.821-3.465H1.99v-5.05h5.941c.149 0 .297-.1.396-.199.1-.148.1-.297.05-.445-.297-.842-.446-1.683-.446-2.327 0-1.337.693-1.832 2.476-1.832 1.782 0 2.475.495 2.475 1.832 0 .594-.148 1.485-.445 2.327-.05.148 0 .297.049.445a.45.45 0 0 0 .396.198h5.94v5.94c0 .15.1.298.198.397.1.1.297.1.446.05.842-.298 1.683-.446 2.327-.446 1.337 0 1.831.693 1.831 2.475.148 1.88-.347 2.574-1.683 2.574z"/>
</svg>
