<svg xmlns="http://www.w3.org/2000/svg" width="28" height="28" viewBox="0 0 28 28">
    <g fill="#7790A3" fill-rule="nonzero">
        <path d="M3.851 27.714a3.537 3.537 0 0 0 2.523-1.045l3.143-3.143a3.512 3.512 0 0 0 .668-4.097c.015 0 .037-.02.051-.035L12 17.62A9.747 9.747 0 1 0 10.38 16l-1.76 1.757c-.015.017-.02.037-.035.051h.001a3.514 3.514 0 0 0-4.103.66l-3.142 3.144a3.564 3.564 0 0 0 2.51 6.102zM18 2.571c1.97 0 3.86.783 5.253 2.176a7.432 7.432 0 0 1 0 10.507 7.432 7.432 0 0 1-10.506 0 7.432 7.432 0 0 1 0-10.507A7.432 7.432 0 0 1 18 2.57zM2.945 23.24l3.143-3.143a1.283 1.283 0 0 1 1.815 1.815L4.76 25.055a1.283 1.283 0 0 1-1.815-1.815z"/>
        <path d="M17.429 7.143H18A2.857 2.857 0 0 1 20.857 10v.571a1.142 1.142 0 1 0 2.286 0V10a5.139 5.139 0 0 0-1.507-3.636A5.138 5.138 0 0 0 18 4.857h-.572a1.142 1.142 0 1 0 0 2.286z"/>
    </g>
</svg>
