<svg xmlns="http://www.w3.org/2000/svg" width="26" height="26" viewBox="0 0 26 26">
    <path fill="#979797" fill-rule="nonzero" stroke="#969797" stroke-width="1.5" d="M4.336 16.06a3.1 3.1 0 0 0 3.098-3.104 3.1 3.1 0 0 0-3.098-3.104 3.101 3.101 0 0 0-3.098 3.104 3.101 3.101 0 0 0 3.098 3.103zm0 .237A3.339 3.339 0 0 1 1 12.956a3.339 3.339 0 0 1 3.336-3.342 3.339 3.339 0 0 1 3.336 3.342 3.339 3.339 0 0 1-3.336 3.341zm11.548 5.192v.004a5.432 5.432 0 0 1 5.426-5.434h.089a3.1 3.1 0 0 0 3.085-3.103 3.101 3.101 0 0 0-3.098-3.104l-.013-.001h-.063a5.432 5.432 0 0 1-5.426-5.435v-.088a3.1 3.1 0 0 0-3.097-3.09 3.101 3.101 0 0 0-3.099 3.104c0 1.71 1.38 3.096 3.08 3.105l.092-.001a5.432 5.432 0 0 1 5.427 5.435v.1a5.431 5.431 0 0 1-5.427 5.335H12.787a3.102 3.102 0 0 0-3.099 3.105 3.101 3.101 0 0 0 3.099 3.104 3.1 3.1 0 0 0 3.097-3.037zm.238.004a3.338 3.338 0 0 1-3.335 3.27A3.339 3.339 0 0 1 9.45 21.42a3.339 3.339 0 0 1 3.336-3.342h.073a5.193 5.193 0 0 0 5.189-5.103v-.02-.014-.06a5.194 5.194 0 0 0-5.19-5.199l-.087.001A3.34 3.34 0 0 1 9.45 4.342 3.339 3.339 0 0 1 12.786 1a3.339 3.339 0 0 1 3.336 3.327v.09a5.193 5.193 0 0 0 5.188 5.197h.075a3.339 3.339 0 0 1 3.336 3.342 3.339 3.339 0 0 1-3.321 3.341h-.09a5.194 5.194 0 0 0-5.188 5.196z"/>
</svg>
