<?xml version="1.0" standalone="no"?>
<!DOCTYPE svg PUBLIC "-//W3C//DTD SVG 20010904//EN"
 "http://www.w3.org/TR/2001/REC-SVG-20010904/DTD/svg10.dtd">
<svg version="1.0" xmlns="http://www.w3.org/2000/svg"
 width="750.000000pt" height="750.000000pt" viewBox="0 0 750.000000 750.000000"
 preserveAspectRatio="xMidYMid meet">
<metadata>
Created by potrace 1.11, written by Peter Selinger 2001-2013
</metadata>
<g transform="translate(0.000000,750.000000) scale(0.100000,-0.100000)"
fill="#000000" stroke="none">
<path d="M1191 6228 c-16 -42 -51 -192 -72 -313 -18 -99 -23 -164 -25 -375 -2
-290 9 -421 56 -650 112 -544 357 -1037 758 -1520 108 -130 399 -426 530 -541
429 -373 905 -685 1519 -992 103 -52 217 -108 253 -125 36 -16 99 -46 140 -65
250 -117 667 -283 1005 -400 201 -69 226 -77 220 -66 -4 5 -11 9 -17 9 -10 0
-531 258 -648 322 -418 227 -551 304 -835 481 -330 207 -641 424 -935 654 -34
26 -268 220 -299 248 -653 574 -1054 1111 -1245 1664 -38 108 -76 247 -76 276
0 9 64 -48 148 -132 215 -216 411 -374 737 -595 275 -186 695 -439 1015 -611
41 -22 116 -62 165 -89 219 -119 968 -484 1330 -648 172 -78 215 -95 215 -87
0 3 -36 74 -79 159 -44 84 -103 214 -131 288 -29 74 -56 144 -61 155 -20 49
-93 292 -125 420 -60 237 -112 521 -129 705 -4 36 -8 70 -10 77 -2 7 -7 88
-11 180 l-6 168 57 -90 c103 -164 226 -290 333 -344 24 -12 109 -39 190 -61
282 -74 555 -188 822 -343 87 -52 112 -61 150 -61 82 1 168 59 215 146 26 46
30 63 29 133 0 133 -53 217 -177 280 -60 31 -194 140 -226 186 -17 22 -51 95
-77 162 -111 289 -167 354 -411 482 -217 114 -254 222 -142 418 26 45 11 33
-113 -97 l-143 -148 -60 25 c-191 80 -630 141 -836 117 -207 -24 -407 -88
-565 -181 -364 -215 -605 -599 -607 -966 0 -61 -4 -83 -13 -83 -22 0 -525 256
-618 315 -49 30 -90 55 -92 55 -2 0 -55 34 -117 77 -628 428 -951 876 -968
1341 -1 34 -4 62 -6 62 -2 0 -7 -10 -12 -22z"/>
</g>
</svg>
